<?xml version="1.0" encoding="utf-8"?>
<!-- Generator: Adobe Illustrator 19.0.0, SVG Export Plug-In . SVG Version: 6.00 Build 0)  -->
<svg version="1.1" id="Layer_1" xmlns="http://www.w3.org/2000/svg" xmlns:xlink="http://www.w3.org/1999/xlink" x="0px" y="0px"
	 viewBox="-197 240.8 445.5 113.5" style="enable-background:new -197 240.8 445.5 113.5;" xml:space="preserve">
<style type="text/css">
	.st0{fill:#24D035;}
</style>
<g>
	<polygon class="st0" points="175.3,285.2 138.9,285.2 131,351.9 167.4,351.9 	"/>
	<polygon class="st0" points="244.1,285.2 207.7,285.2 199.8,351.9 236.2,351.9 	"/>
	<path class="st0" d="M133,273.8"/>
</g>
<path class="st0" d="M245.4,273.8c1.8-18.5,2.9-31.2-32.8-30.9h-68.8l-3.7,30.9H245.4z"/>
<path class="st0" d="M63.2,310.7h29.5c30.7,0,34.9-4.6,39-25.5H30.7l-7.9,66.7h35.5L63.2,310.7z"/>
<path class="st0" d="M-15.2,310.7h-47.8c-11.1,0-20-11.4-20-25.5h71.8c27.7,0,34,5.9,31.7,25.5L19,323.4c-4.1,20.9-8.3,28.5-39,28.5
	h-70.8l3.4-28.5h70.8L-15.2,310.7z"/>
<polygon class="st0" points="-97.7,351.9 -194.9,351.9 -187,285.2 -89.8,285.2 -92.9,310.7 -154.2,310.7 -155.7,323.4 -94.4,323.4 
	"/>
<polygon class="st0" points="-88.5,273.8 -84.8,242.9 -182.1,242.9 -185.7,273.8 "/>
<path class="st0" d="M133,273.8H74.5h-6.9H-81.6c3.2-27.1,7.4-30.9,40.1-30.9h141.8C127.9,242.9,137.4,249.8,133,273.8"/>
</svg>
