<?xml version="1.0" encoding="utf-8"?>
<!-- Generator: Adobe Illustrator 19.0.0, SVG Export Plug-In . SVG Version: 6.00 Build 0)  -->
<svg version="1.1" id="Layer_1" xmlns="http://www.w3.org/2000/svg" xmlns:xlink="http://www.w3.org/1999/xlink" x="0px" y="0px"
	 viewBox="-185 242.3 470 112" style="enable-background:new -185 242.3 470 112;" xml:space="preserve">
<style type="text/css">
	.st0{fill:#24D035;}
	.st1{enable-background:new    ;}
</style>
<path class="st0" d="M-116.2,298.2l33.4-33.4c-1.6-2.8-3.7-5.4-5.9-7.7c-6-6-13.5-10-21.2-9.8c-6.9,0.1-13.9,3.8-19.1,9l-42,42
	c-5.8,5.8-9.6,13.1-9,20.9c0.5,6.7,4.6,14.1,9.8,19.4c6,6,13.5,10,21.2,9.9c6.9-0.1,13.9-3.8,19.1-9l8.6-8.6
	c-2.2-3.7-3.6-7.8-3.9-11.7C-125.8,311.3-122.1,304.1-116.2,298.2z"/>
<path class="st0" d="M-61,298.2l33.1-33.1c-1.7-2.9-3.7-5.7-6.1-8c-6-6-13.5-10-21.2-9.8c-6.9,0.1-13.9,3.8-19.1,9l-8.6,8.6
	c2.2,3.7,3.6,7.8,3.9,11.7c0.6,7.8-3.1,15.1-9,20.9l-33.4,33.4c1.6,2.8,3.7,5.4,5.9,7.7c6,6,13.5,10,21.2,9.9
	c6.9-0.1,13.9-3.8,19.1-9l8.8-8.8c-2.1-3.7-3.5-7.6-3.8-11.4C-70.6,311.3-66.9,304.1-61,298.2z"/>
<path class="st0" d="M31,276.5c-0.5-6.7-4.6-14.1-9.8-19.4c-6-6-13.5-10-21.2-9.8c-6.9,0.1-13.9,3.8-19.1,9l-8.8,8.8
	c2.1,3.7,3.5,7.6,3.8,11.4c0.6,7.8-3.1,15.1-9,20.9l-33.1,33.1c1.7,2.9,3.7,5.7,6.1,8c6,6,13.5,10,21.2,9.9c6.9-0.1,13.9-3.8,19.1-9
	l42-42C27.9,291.6,31.7,284.3,31,276.5z"/>
<g class="st1">
	<path class="st0" d="M46.8,283.6h7l7.8,12.5l7.8-12.5h7v29.5h-6.5v-19.3l-8.3,12.6h-0.2L53.1,294v19.2h-6.4L46.8,283.6L46.8,283.6z
		"/>
	<path class="st0" d="M83.4,283.6h22.3v5.8H89.9v6h13.9v5.8H89.9v6.2h16v5.8H83.4V283.6z"/>
	<path class="st0" d="M111.7,283.6h11.5c9.3,0,15.7,6.4,15.7,14.7v0.1c0,8.3-6.4,14.8-15.7,14.8h-11.5V283.6z M123.2,307.2
		c5.3,0,8.9-3.6,8.9-8.8v-0.1c0-5.2-3.6-8.9-8.9-8.9h-5v17.8L123.2,307.2L123.2,307.2z"/>
	<path class="st0" d="M145,283.6h6.5v29.5H145V283.6z"/>
	<path class="st0" d="M169,283.4h6l12.7,29.8h-6.8l-2.7-6.6h-12.5l-2.7,6.6h-6.6L169,283.4z M175.8,300.7l-3.9-9.6l-3.9,9.6H175.8z"
		/>
	<path class="st0" d="M192.2,283.6h12.1c7,0,11.3,4.2,11.3,10.2v0.1c0,6.8-5.3,10.4-11.9,10.4h-4.9v8.9h-6.5L192.2,283.6
		L192.2,283.6z M203.9,298.5c3.2,0,5.1-1.9,5.1-4.5v-0.1c0-2.9-2-4.5-5.3-4.5h-5v9L203.9,298.5L203.9,298.5z"/>
	<path class="st0" d="M220.4,283.6h13.5c3.8,0,6.7,1.1,8.6,3c1.6,1.6,2.5,4,2.5,6.8v0.1c0,4.8-2.6,7.8-6.3,9.2l7.2,10.6h-7.6
		l-6.3-9.5h-5.1v9.5h-6.5L220.4,283.6L220.4,283.6z M233.5,297.9c3.2,0,5-1.7,5-4.2v-0.1c0-2.8-1.9-4.2-5.1-4.2h-6.5v8.5
		L233.5,297.9L233.5,297.9z"/>
	<path class="st0" d="M249.6,298.4L249.6,298.4c0-8.5,6.6-15.4,15.7-15.4c9.1,0,15.7,6.8,15.7,15.2v0.1c0,8.4-6.6,15.3-15.7,15.3
		C256.1,313.6,249.6,306.8,249.6,298.4z M274.2,298.4L274.2,298.4c0-5.1-3.7-9.4-8.9-9.4c-5.2,0-8.9,4.1-8.9,9.2v0.1
		c0,5.1,3.7,9.3,8.9,9.3C270.6,307.6,274.2,303.5,274.2,298.4z"/>
</g>
</svg>
